<?xml version="1.0" standalone="no"?><svg xmlns="http://www.w3.org/2000/svg" viewBox="0 0 1440 320"><path fill="#312C51" fill-opacity="1" d="M0,64L26.7,69.3C53.3,75,107,85,160,96C213.3,107,267,117,320,149.3C373.3,181,427,235,480,256C533.3,277,587,267,640,245.3C693.3,224,747,192,800,186.7C853.3,181,907,203,960,224C1013.3,245,1067,267,1120,266.7C1173.3,267,1227,245,1280,224C1333.3,203,1387,181,1413,170.7L1440,160L1440,320L1413.3,320C1386.7,320,1333,320,1280,320C1226.7,320,1173,320,1120,320C1066.7,320,1013,320,960,320C906.7,320,853,320,800,320C746.7,320,693,320,640,320C586.7,320,533,320,480,320C426.7,320,373,320,320,320C266.7,320,213,320,160,320C106.7,320,53,320,27,320L0,320Z"></path></svg>